# AST/ASF file generated using VICON BodyLanguage
# -----------------------------------------------
:version 1.10
:name VICON
:units
  mass 1.0
  length 0.45
  angle deg
:documentation
   .ast/.asf automatically generated from VICON data using
   VICON BodyBuilder and BodyLanguage model FoxedUp or BRILLIANT.MOD
:root
   order TX TY TZ RX RY RZ
   axis XYZ
   position 0 0 0  
   orientation 0 -0 0 
:bonedata
  begin
     id 1 
     name lhipjoint
     direction 0.515797 -0.759363 0.396637 
     length 2.47888 
     axis 0 -0 0  XYZ
  end
  begin
     id 2 
     name lfemur
     direction 0.34202 -0.939693 0  
     length 6.81885  
     axis 0 -0 20  XYZ
    dof rx ry rz
    limits (-160.0 20.0)
           (-70.0 70.0)
           (-60.0 70.0)
  end
  begin
     id 3 
     name ltibia
     direction 0.342037 -0.939687 0   
     length 7.89258   
     axis 0 -0 20   XYZ
    dof rx
    limits (-10.0 170.0)
  end
  begin
     id 4 
     name lfoot
     direction 0.173497 -0.476678 0.861787   
     length 2.51543   
     axis -90 -1.13533e-015 20   XYZ
    dof rx rz
    limits (-45.0 90.0)
           (-70.0 20.0)
  end
  begin
     id 5 
     name ltoes
     direction 1.53564e-011 -4.21897e-011 1   
     length 1.21388   
     axis -90 -1.13533e-015 20   XYZ
    dof rx
    limits (-90.0 20.0)
  end
  begin
     id 6 
     name rhipjoint
     direction -0.489454 -0.772941 0.403729   
     length 2.43534  
     axis 0 -0 0  XYZ 
  end
  begin
     id 7 
     name rfemur
     direction -0.34202 -0.939693 0   
     length 7.10357   
     axis 0 -0 -20   XYZ
    dof rx ry rz
    limits (-160.0 20.0)
           (-70.0 70.0)
           (-70.0 60.0)
  end
  begin
     id 8 
     name rtibia
     direction -0.34202 -0.939693 0   
     length 9.16127   
     axis 0 -0 -20   XYZ
    dof rx
    limits (-10.0 170.0)
 end
 begin
     id 9 
     name rfoot
     direction -0.270974 -0.748671 0.605033   
     length 1.74894  
     axis -90 1.13533e-015 -20   XYZ
    dof rx rz
    limits (-45.0 90.0)
           (-20.0 70.0)
  end
  begin
     id 10 
     name rtoes
     direction -1.53557e-011 -4.21759e-011 1   
     length 0.787585   
     axis -90 1.13533e-015 -20   XYZ
    dof rx
    limits (-90.0 20.0)
  end
  begin
     id 11 
     name lowerback
     direction -0.0140249 0.999561 0.0260968   
     length 2.16963   
     axis 0 -0 0   XYZ
    dof rx ry rz
    limits (-20.0 45.0)
           (-30.0 30.0)
           (-30.0 30.0)
  end
  begin
     id 12 
     name upperback
     direction 0.00860018 0.999959 -0.002711   
     length 2.1726   
     axis 0 -0 0   XYZ
    dof rx ry rz
    limits (-20.0 45.0)
           (-30.0 30.0)
           (-30.0 30.0)
  end
  begin
     id 13 
     name thorax
     direction 0.015211 0.999782 -0.0143191   
     length 2.17061   
     axis 0 -0 0   XYZ
    dof rx ry rz
    limits (-20.0 45.0)
           (-30.0 30.0)
           (-30.0 30.0)
  end
  begin
     id 14 
     name lowerneck
     direction -0.0140143 0.999447 0.030145   
     length 2.26749   
     axis 0 -0 0   XYZ
    dof rx ry rz
    limits (-20.0 45.0)
           (-30.0 30.0)
           (-30.0 30.0)
  end
  begin
     id 15 
     name upperneck
     direction 0.118062 0.961438 -0.248392   
     length 2.22728   
     axis 0 -0 0   XYZ
    dof rx ry rz
    limits (-20.0 45.0)
           (-30.0 30.0)
           (-30.0 30.0)
  end
  begin
     id 16
     name head
     direction 0.0431885 0.9954 -0.085514  
     length 2.28786  
     axis 0 -0 0   XYZ
    dof rx ry rz
    limits (-20.0 45.0)
           (-30.0 30.0)
           (-30.0 30.0)
  end
  begin
     id 17 
     name lclavicle
     direction 0.912126 0.409548 0.0172323  
     length 4.31571  
     axis 0 -0 0   XYZ
    dof ry rz
    limits (-20.0 10.0)
           (0.0 20.0)
  end
  begin
     id 18 
     name lhumerus
     direction 1 -4.48977e-011 1.93091e-027   
     length 5.13658   
     axis 180 -30 -90   XYZ
    dof rx ry rz
    limits (-60.0 90.0)
           (-90.0 90.0)
           (-90.0 90.0)
  end
  begin
     id 19
     name lradius
     direction 1 -4.48916e-011 6.84018e-027   
     length 3.22473   
     axis 180 -30 -90   XYZ
    dof rx
    limits (-10.0 170.0)
  end
  begin
     id 20
     name lwrist
     direction 1 -4.48987e-011 7.01981e-027   
     length 1.61236   
     axis -4.37994e-015 90 90   XYZ
    dof ry
    limits (-180.0 0.0)
 end
  begin
     id 21 
     name lhand
     direction 1 -4.49037e-011 1.40335e-026   
     length 0.936406   
     axis -8.96029e-015 90 90   XYZ
    dof rx rz
    limits (-90.0 90.0)
           (-45.0 45.0)
  end
  begin
     id 22 
     name lfingers
     direction 1 -4.48886e-011 2.8104e-026   
     length 0.754955   
     axis -1.79203e-014 90 90   XYZ
    dof rx
    limits (0.0 90.0)
  end
  begin
     id 23
     name lthumb
     direction 0.707107 -6.34937e-011 0.707107   
     length 1.08397   
     axis -90 45 -4.48555e-014   XYZ
    dof rx rz
    limits (-45.0 45.0)
           (-45.0 45.0)
  end
  begin
     id 24 
     name rclavicle
     direction -0.947962 0.317997 0.0156638   
     length 4.86918  
     axis 0 -0 0   XYZ 
    dof ry rz
    limits (-10.0 20.0)
           (-20.0 0.0)
  end
  begin
     id 25 
     name rhumerus
     direction -1 -4.48951e-011 2.80534e-018  
     length 5.60911   
     axis 180 30 90   XYZ
    dof rx ry rz
    limits (-90.0 60.0)
           (-90.0 90.0)
           (-90.0 90.0)
  end
  begin
     id 26 
     name rradius
     direction -1 -4.4898e-011 2.11315e-027   
     length 3.38704   
     axis 180 30 90   XYZ
    dof rx
    limits (-10.0 170.0)
  end
  begin
     id 27 
     name rwrist
     direction -1 -4.48933e-011 7.02314e-027   
     length 1.69352   
     axis -4.37994e-015 -90 -90   XYZ
    dof ry
    limits (-180.0 0.0)
  end
  begin
     id 28
     name rhand
     direction -1 -4.48937e-011 1.40458e-026   
     length 0.755878   
     axis -8.96029e-015 -90 -90   XYZ
    dof rx rz
    limits (-90.0 90.0)
           (-45.0 45.0)
  end
  begin
     id 29
     name rfingers
     direction -1 -4.4901e-011 2.80737e-026   
     length 0.609409   
     axis -1.79203e-014 -90 -90   XYZ
    dof rx
    limits (0.0 90.0)
  end
  begin
     id 30
     name rthumb
     direction -0.707107 -6.34968e-011 0.707107   
     length 0.874992   
     axis -90 -45 4.48555e-014   XYZ
    dof rx rz
    limits (-45.0 45.0)
           (-45.0 45.0)
  end
:hierarchy
  begin
    root lhipjoint rhipjoint lowerback
    lhipjoint lfemur
    lfemur ltibia
    ltibia lfoot
    lfoot ltoes
    rhipjoint rfemur
    rfemur rtibia
    rtibia rfoot
    rfoot rtoes
    lowerback upperback
    upperback thorax
    thorax lowerneck lclavicle rclavicle
    lowerneck upperneck
    upperneck head
    lclavicle lhumerus
    lhumerus lradius
    lradius lwrist
    lwrist lhand lthumb
    lhand lfingers
    rclavicle rhumerus
    rhumerus rradius
    rradius rwrist
    rwrist rhand rthumb
    rhand rfingers
  end

#!OML:ASF C:\ViconDB\ViconDB\414\Spring2016\041811\Spring2016.ASF
:FULLY-SPECIFIED
:DEGREES
31
root 9.90569 16.9616 10.5339 -162.353 -6.30026 -178.961
lowerback 25.7162 0.564846 0.693391
upperback 4.64468 0.00306097 0.114129
thorax -9.12839 -0.400138 -0.21164
lowerneck -13.2679 -5.78509 -12.8529
upperneck 4.81519 -7.84409 19.8476
head 5.01762 -3.28732 7.76266
rclavicle -1.88845e-015 3.97569e-015
rhumerus -54.4071 -11.0125 -77.1163
rradius 38.4188
rwrist 29.7203
rhand -33.4217 -15.3029
rfingers 7.12502
rthumb -6.62135 -45.1794
lclavicle -1.88845e-015 3.97569e-015
lhumerus -46.9566 1.46549 72.4036
lradius 17.3109
lwrist -35.0216
lhand -30.0158 16.5356
lfingers 7.12502
lthumb -3.33273 46.4893
rfemur -46.3462 -13.0132 26.637
rtibia 54.1326
rfoot -4.20786 -7.39139
rtoes -8.0326
lfemur -50.8804 8.21681 -15.4256
ltibia 57.8692
lfoot -24.3742 -1.70808
ltoes -10.1055
32
root 9.90291 16.8951 10.551 -161.708 -6.24509 -178.784
lowerback 26.1803 0.533429 0.885138
upperback 4.64559 0.00141598 0.123617
thorax -9.3646 -0.413944 -0.308167
lowerneck -13.1351 -5.76937 -12.9206
upperneck 4.05949 -7.75267 20.0362
head 4.76773 -3.27417 7.84252
rclavicle -1.44119e-015 5.26779e-015
rhumerus -55.0295 -10.7487 -77.2582
rradius 38.2824
rwrist 29.56
rhand -33.3078 -15.3713
rfingers 7.12502
rthumb -6.51136 -45.2512
lclavicle -1.44119e-015 5.26779e-015
lhumerus -47.4262 2.7567 70.8691
lradius 16.53
lwrist -37.3415
lhand -30.0558 16.1093
lfingers 7.12502
lthumb -3.37131 46.0624
rfemur -47.997 -13.1722 27.0732
rtibia 55.5711
rfoot -4.10877 -7.93357
rtoes -7.91848
lfemur -52.4364 8.64551 -15.4664
ltibia 59.1733
lfoot -24.7238 -2.02372
ltoes -10.0385
33
root 9.90294 16.7972 10.5681 -161.2 -6.1434 -178.936
lowerback 26.8014 0.58425 0.737611
upperback 4.73841 -0.0157737 0.0712166
thorax -9.57922 -0.43502 -0.271657
lowerneck -13.1648 -5.82778 -12.9346
upperneck 3.29658 -7.74214 20.1166
head 4.5502 -3.29665 7.86558
rclavicle 3.67752e-015 -1.68967e-015
rhumerus -55.3739 -10.8032 -77.2632
rradius 38.0365
rwrist 29.3983
rhand -33.1073 -15.2805
rfingers 7.12502
rthumb -6.31784 -45.1663
lclavicle 3.67752e-015 -1.68967e-015
lhumerus -47.8046 2.94782 70.1973
lradius 16.031
lwrist -38.8705
lhand -30.1973 15.9478
lfingers 7.12502
lthumb -3.50802 45.8987
rfemur -49.6396 -13.3608 27.1294
rtibia 57.1594
rfoot -3.96219 -8.43666
rtoes -7.88768
lfemur -53.8983 8.94355 -15.8148
ltibia 60.5671
lfoot -25.1245 -2.25458
ltoes -10.3007
34
root 9.89916 16.6955 10.5774 -160.793 -6.08666 -178.84
lowerback 27.3857 0.593643 0.793113
upperback 4.79637 -0.0150238 0.102568
thorax -9.81109 -0.450152 -0.264796
lowerneck -13.0348 -5.77622 -13.0301
upperneck 2.58236 -7.59833 20.2548
head 4.30408 -3.26085 7.94127
rclavicle -1.27222e-014 -1.30204e-014
rhumerus -55.7499 -10.623 -77.3954
rradius 37.7965
rwrist 29.7904
rhand -33.4339 -15.4993
rfingers 7.12502
rthumb -6.63305 -45.3754
lclavicle -1.27222e-014 -1.30204e-014
lhumerus -48.0956 3.98276 69.0473
lradius 15.4729
lwrist -40.4546
lhand -30.0102 15.7648
lfingers 7.12502
lthumb -3.32726 45.7186
rfemur -51.1476 -13.5169 27.4148
rtibia 58.7053
rfoot -3.80227 -8.93924
rtoes -7.79573
lfemur -55.3001 9.31565 -15.908
ltibia 62.0015
lfoot -25.5809 -2.38747
ltoes -10.7993
35
root 9.89572 16.5933 10.5809 -160.422 -6.01904 -178.764
lowerback 27.9431 0.595185 0.864934
upperback 4.85646 -0.0226313 0.10185
thorax -10.0253 -0.470104 -0.300341
lowerneck -13.0068 -5.84339 -13.1088
upperneck 1.99566 -7.61227 20.2979
head 4.1347 -3.2936 7.96472
rclavicle -1.50082e-014 5.86415e-015
rhumerus -55.973 -10.6974 -77.4128
rradius 37.5021
rwrist 30.0259
rhand -33.2501 -15.1724
rfingers 7.12502
rthumb -6.45564 -45.0541
lclavicle -1.50082e-014 5.86415e-015
lhumerus -48.2886 4.83945 68.0521
lradius 14.9582
lwrist -41.6224
lhand -29.9053 15.7063
lfingers 7.12502
lthumb -3.22601 45.6616
rfemur -52.5994 -13.7157 27.6958
rtibia 60.2943
rfoot -3.6608 -9.4965
rtoes -7.93146
lfemur -56.659 9.64949 -16.0031
ltibia 63.4904
lfoot -26.0573 -2.57272
ltoes -10.9918
36
root 9.88954 16.4874 10.5821 -160.031 -5.97443 -178.781
lowerback 28.3882 0.607348 0.904433
upperback 4.8847 -0.0183939 0.0681154
thorax -10.218 -0.479494 -0.359613
lowerneck -12.9432 -5.87995 -13.2251
upperneck 1.52171 -7.63094 20.5713
head 4.00883 -3.32404 8.07425
rclavicle -5.96354e-015 -8.84592e-015
rhumerus -56.1821 -11.0372 -77.3707
rradius 37.2444
rwrist 30.2276
rhand -33.1164 -15.1534
rfingers 7.12502
rthumb -6.32659 -45.0389
lclavicle -5.96354e-015 -8.84592e-015
lhumerus -48.4665 6.54187 66.3288
lradius 14.2992
lwrist -44.7029
lhand -30.0039 15.9703
lfingers 7.12502
lthumb -3.32126 45.9242
rfemur -54.0544 -13.9372 27.8547
rtibia 61.8831
rfoot -3.46095 -10.0437
rtoes -7.59442
lfemur -58.0366 9.95914 -16.2617
ltibia 64.9951
lfoot -26.5612 -2.64227
ltoes -11.344
37
root 9.89096 16.3797 10.5786 -159.721 -5.9489 -178.905
lowerback 28.8586 0.631332 0.748977
upperback 4.93731 -0.0605217 0.0654013
thorax -10.3967 -0.505791 -0.25388
lowerneck -12.8781 -5.8959 -13.407
upperneck 1.02757 -7.59451 20.7647
head 3.86533 -3.32983 8.17481
rclavicle 6.55989e-015 6.85807e-015
rhumerus -56.1374 -11.2438 -77.4027
rradius 36.8969
rwrist 30.0511
rhand -32.9547 -14.9821
rfingers 7.12502
rthumb -6.17049 -44.8722
lclavicle 6.55989e-015 6.85807e-015
lhumerus -48.4876 7.89607 65.0933
lradius 13.7743
lwrist -46.2582
lhand -29.9461 15.5627
lfingers 7.12502
lthumb -3.26538 45.5174
rfemur -55.3786 -14.1131 27.8837
rtibia 63.4585
rfoot -3.14674 -10.5099
rtoes -7.47274
lfemur -59.2924 10.1777 -16.4817
ltibia 66.4561
lfoot -27.0072 -3.00566
ltoes -11.2735
38
root 9.88093 16.2733 10.5618 -159.432 -5.96896 -178.776
lowerback 29.0721 0.61238 0.93474
upperback 4.99817 -0.0432797 0.105852
thorax -10.4325 -0.511438 -0.320098
lowerneck -12.8199 -5.95679 -13.5064
upperneck 0.594344 -7.62225 20.8284
head 3.74164 -3.36514 8.2104
rclavicle -3.32964e-014 -1.2921e-015
rhumerus -56.1023 -11.4236 -77.5006
rradius 36.7036
rwrist 29.8563
rhand -32.8574 -14.9428
rfingers 7.12502
rthumb -6.07651 -44.8356
lclavicle -3.32964e-014 -1.2921e-015
lhumerus -48.4712 9.7002 63.4795
lradius 13.1938
lwrist -48.7526
lhand -29.8233 15.1427
lfingers 7.12502
lthumb -3.14684 45.0992
rfemur -56.5833 -14.3285 28.1657
rtibia 64.9704
rfoot -2.83739 -11.0708
rtoes -7.37359
lfemur -60.4612 10.3489 -16.4375
ltibia 67.9233
lfoot -27.5047 -3.17652
ltoes -11.5858
39
root 9.87619 16.1682 10.5416 -159.19 -5.94442 -178.84
lowerback 29.3551 0.616021 0.920527
upperback 5.01027 -0.058951 0.0640568
thorax -10.5609 -0.524503 -0.351326
lowerneck -12.772 -5.96477 -13.5214
upperneck 0.267228 -7.6205 20.9791
head 3.64772 -3.38216 8.26415
rclavicle -1.09332e-015 1.68967e-015
rhumerus -55.9831 -11.9556 -77.4767
rradius 36.3436
rwrist 29.8649
rhand -32.9303 -14.5759
rfingers 7.12502
rthumb -6.14692 -44.4667
lclavicle -1.09332e-015 1.68967e-015
lhumerus -48.4922 11.1091 62.1987
lradius 12.8631
lwrist -50.5506
lhand -29.9005 15.3409
lfingers 7.12502
lthumb -3.22138 45.2963
rfemur -57.7087 -14.4716 28.1865
rtibia 66.4523
rfoot -2.50316 -11.5157
rtoes -7.14991
lfemur -61.485 10.456 -16.581
ltibia 69.3077
lfoot -28.0488 -3.23667
ltoes -11.7941
40
root 9.87117 16.0615 10.5181 -158.941 -5.98999 -178.87
lowerback 29.4845 0.613727 0.936298
upperback 5.03298 -0.061817 0.08969
thorax -10.5995 -0.529336 -0.329309
lowerneck -12.6796 -5.99847 -13.6808
upperneck -0.118308 -7.61493 21.0825
head 3.53154 -3.40037 8.32897
rclavicle -2.5842e-015 4.77083e-015
rhumerus -55.7205 -12.6045 -77.2805
rradius 35.9041
rwrist 30.1368
rhand -33.1796 -14.3404
rfingers 7.12502
rthumb -6.38758 -44.2241
lclavicle -2.5842e-015 4.77083e-015
lhumerus -48.3395 12.5689 61.1785
lradius 12.5955
lwrist -52.1121
lhand -29.8734 15.4734
lfingers 7.12502
lthumb -3.19516 45.4292
rfemur -58.799 -14.6461 28.2679
rtibia 67.9059
rfoot -2.15523 -11.9426
rtoes -6.93799
lfemur -62.546 10.6686 -16.7292
ltibia 70.6733
lfoot -28.5427 -3.42687
ltoes -12.0269
41
root 9.86621 15.9631 10.485 -158.782 -5.96274 -179.022
lowerback 29.7388 0.656744 0.742295
upperback 5.01135 -0.0664371 0.122154
thorax -10.7532 -0.526887 -0.17634
lowerneck -12.5958 -6.02118 -13.7775
upperneck -0.461763 -7.58875 21.018
head 3.41271 -3.4071 8.32809
rclavicle 1.22253e-014 -2.48481e-016
rhumerus -55.3768 -13.2026 -77.0699
rradius 35.5392
rwrist 30.3833
rhand -33.204 -14.3604
rfingers 7.12502
rthumb -6.4112 -44.2434
lclavicle 1.22253e-014 -2.48481e-016
lhumerus -48.1439 14.0383 60.4466
lradius 12.3718
lwrist -53.2118
lhand -29.9814 15.3632
lfingers 7.12502
lthumb -3.29953 45.3174
rfemur -59.6735 -14.796 28.1581
rtibia 69.262
rfoot -1.77276 -12.3532
rtoes -6.65531
lfemur -63.3489 10.7196 -16.9463
ltibia 71.9269
lfoot -29.0841 -3.38825
ltoes -12.3167
